PathFileType	3	(X/Y/Z)	running_2__view1_aligned.trc
DataRate	CameraRate	NumFrames	NumMarkers	Units	OrigDataRate	OrigDataStartFrame	OrigNumFrames
100.0	100.0	18	19	mm	100.0	2660	6354
Frame#	Time	pelvis			neck			head			hip_left			hip_right			knee_left			knee_right			ankle_left			ankle_right			heel_left			heel_right			toe_left			toe_right			shoulder_left			shoulder_right			elbow_left			elbow_right			wrist_left			wrist_right			
		X1	Y1	Z1	X2	Y2	Z2	X3	Y3	Z3	X4	Y4	Z4	X5	Y5	Z5	X6	Y6	Z6	X7	Y7	Z7	X8	Y8	Z8	X9	Y9	Z9	X10	Y10	Z10	X11	Y11	Z11	X12	Y12	Z12	X13	Y13	Z13	X14	Y14	Z14	X15	Y15	Z15	X16	Y16	Z16	X17	Y17	Z17	X18	Y18	Z18	X19	Y19	Z19	
2660	26.59000	86.752564	940.279281	167.550020	55.909201	1473.955639	299.790404	75.874572	1556.514392	447.036691	162.773697	941.778233	163.598418	10.731068	938.780279	171.501925	186.921509	541.633795	353.611391	-37.836783	507.362427	226.322865	180.751188	204.500327	201.389004	-59.555235	208.938496	-34.580217	179.864631	173.961009	160.622166	-56.465420	191.464535	-87.264003	156.307034	108.439833	327.372791	-70.551831	63.812749	65.381445	215.626664	1473.997499	236.869938	-110.322681	1412.141767	276.607789	295.381054	1254.110613	92.999173	-181.736250	1150.275882	217.449497	249.876554	1132.151607	295.312921	-85.339953	1082.320221	424.999051
2661	26.60000	88.884549	940.204100	166.294655	58.798056	1473.815998	298.696741	78.596164	1556.497931	446.009080	164.814689	941.729232	162.328255	12.954046	938.678919	170.261358	187.541784	541.511666	354.435660	-37.088987	507.461856	225.034670	181.756370	200.262748	208.367003	-60.845383	212.179380	-41.486042	181.032346	168.264084	168.085858	-57.810431	195.722412	-94.837640	158.365416	108.428480	339.165583	-72.684174	63.567936	56.149671	218.774882	1473.538864	235.546061	-107.692102	1411.975499	275.662236	297.765109	1253.004796	91.788509	-179.231328	1150.129932	216.265881	253.280861	1131.674861	294.822481	-82.763132	1082.283837	423.944818
2662	26.61000	91.016534	940.128919	165.039291	61.686910	1473.676357	297.603078	81.317755	1556.481471	444.981469	166.855681	941.680230	161.058093	15.177025	938.577558	169.020792	188.162059	541.389536	355.259929	-36.341190	507.561286	223.746474	182.761553	196.025169	215.345003	-62.135531	215.420264	-48.391867	182.200061	162.567160	175.549550	-59.155442	199.980290	-102.411276	160.423799	108.417128	350.958374	-74.816517	63.323124	46.917897	221.923100	1473.080230	234.222184	-105.061523	1411.809230	274.716682	300.149165	1251.898980	90.577844	-176.726405	1149.983982	215.082266	256.685167	1131.198115	294.332040	-80.186311	1082.247454	422.890584
2663	26.62000	93.148519	940.053737	163.783926	64.575765	1473.536716	296.509414	84.039347	1556.465010	443.953857	168.896672	941.631228	159.787930	17.400003	938.476197	167.780226	188.782334	541.267406	356.084198	-35.593394	507.660716	222.458279	183.766735	191.787590	222.323003	-63.425680	218.661147	-55.297692	183.367775	156.870236	183.013242	-60.500453	204.238168	-109.984913	162.482181	108.405776	362.751166	-76.948861	63.078312	37.686124	225.071318	1472.621595	232.898307	-102.430944	1411.642961	273.771128	302.533220	1250.793163	89.367180	-174.221482	1149.838032	213.898650	260.089473	1130.721369	293.841600	-77.609490	1082.211071	421.836351
2664	26.63000	95.280504	939.978556	162.528562	67.464620	1473.397075	295.415751	86.760939	1556.448550	442.926246	170.937664	941.582227	158.517767	19.622982	938.374837	166.539660	189.402609	541.145277	356.908468	-34.845598	507.760145	221.170083	184.771918	187.550011	229.301002	-64.715828	221.902031	-62.203518	184.535490	151.173311	190.476934	-61.845464	208.496045	-117.558550	164.540564	108.394423	374.543958	-79.081204	62.833499	28.454350	228.219536	1472.162960	231.574430	-99.800365	1411.476692	272.825574	304.917276	1249.687347	88.156515	-171.716559	1149.692082	212.715035	263.493780	1130.244623	293.351159	-75.032669	1082.174687	420.782118
2665	26.64000	97.412490	939.903375	161.273197	70.353475	1473.257434	294.322088	89.482530	1556.432090	441.898634	172.978656	941.533225	157.247605	21.845960	938.273476	165.299094	190.022884	541.023147	357.732737	-34.097802	507.859575	219.881888	185.777101	183.312432	236.279002	-66.005976	225.142915	-69.109343	185.703205	145.476387	197.940626	-63.190475	212.753923	-125.132187	166.598946	108.383071	386.336750	-81.213547	62.588687	19.222576	231.367755	1471.704326	230.250553	-97.169786	1411.310424	271.880021	307.301331	1248.581530	86.945851	-169.211636	1149.546132	211.531419	266.898086	1129.767876	292.860719	-72.455848	1082.138304	419.727885
2666	26.65000	99.544475	939.828194	160.017833	73.242330	1473.117793	293.228425	92.204122	1556.415629	440.871023	175.019648	941.484223	155.977442	24.068939	938.172115	164.058527	190.643159	540.901017	358.557006	-33.350005	507.959005	218.593693	186.782283	179.074853	243.257002	-67.296124	228.383799	-76.015168	186.870919	139.779462	205.404318	-64.535486	217.011800	-132.705824	168.657328	108.371719	398.129542	-83.345890	62.343874	9.990803	234.515973	1471.245691	228.926676	-94.539207	1411.144155	270.934467	309.685386	1247.475714	85.735186	-166.706713	1149.400182	210.347804	270.302392	1129.291130	292.370278	-69.879027	1082.101921	418.673651
2667	26.66000	101.676460	939.753013	158.762468	76.131184	1472.978153	292.134762	94.925713	1556.399169	439.843411	177.060639	941.435222	154.707279	26.291917	938.070755	162.817961	191.263434	540.778888	359.381275	-32.602209	508.058434	217.305497	187.787466	174.837273	250.235002	-68.586272	231.624682	-82.920993	188.038634	134.082538	212.868010	-65.880497	221.269678	-140.279461	170.715711	108.360366	409.922334	-85.478234	62.099062	0.759029	237.664191	1470.787056	227.602799	-91.908628	1410.977886	269.988913	312.069442	1246.369897	84.524522	-164.201791	1149.254232	209.164188	273.706699	1128.814384	291.879838	-67.302205	1082.065537	417.619418
2668	26.67000	103.808445	939.677832	157.507104	79.020039	1472.838512	291.041099	97.647305	1556.382709	438.815800	179.101631	941.386220	153.437117	28.514896	937.969394	161.577395	191.883709	540.656758	360.205544	-31.854413	508.157864	216.017302	188.792649	170.599694	257.213001	-69.876421	234.865566	-89.826818	189.206348	128.385613	220.331702	-67.225508	225.527556	-147.853098	172.774093	108.349014	421.715125	-87.610577	61.854249	-8.472744	240.812409	1470.328422	226.278922	-89.278049	1410.811618	269.043359	314.453497	1245.264080	83.313858	-161.696868	1149.108282	207.980573	277.111005	1128.337638	291.389397	-64.725384	1082.029154	416.565185
2669	26.68000	104.174672	941.327818	157.704482	79.533178	1474.664571	291.474058	98.531615	1558.164990	439.206659	179.516073	943.090624	153.710109	28.832942	939.564969	161.699126	191.915280	541.897062	354.675126	-31.246639	509.948826	217.314389	189.800059	168.570579	254.073224	-69.451961	236.624845	-84.831204	190.264139	125.610972	217.232003	-66.840273	227.116029	-142.354674	174.442894	107.274383	421.103606	-86.997970	65.120735	-3.496304	241.396385	1472.127486	227.227850	-88.842156	1413.104266	268.771924	317.241846	1247.247133	87.267946	-162.594936	1152.630354	206.009425	277.162075	1132.253541	295.081737	-66.489909	1083.281420	413.808847
2670	26.69000	104.540899	942.977805	157.901860	80.046317	1476.490630	291.907018	99.415926	1559.947272	439.597519	179.930516	944.795027	153.983102	29.150988	941.160543	161.820857	191.946850	543.137366	349.144708	-30.638865	511.739789	218.611475	190.807469	166.541463	250.933447	-69.027502	238.384124	-79.835589	191.321929	122.836331	214.132304	-66.455038	228.704502	-136.856250	176.111694	106.199753	420.492088	-86.385364	68.387220	1.480136	241.980361	1473.926550	228.176778	-88.406264	1415.396914	268.500490	320.030195	1249.230185	91.222035	-163.493005	1156.152426	204.038278	277.213145	1136.169444	298.774077	-68.254434	1084.533686	411.052509
2671	26.70000	104.907126	944.627792	158.099238	80.559455	1478.316689	292.339977	100.300236	1561.729554	439.988378	180.344958	946.499431	154.256095	29.469034	942.756118	161.942588	191.978421	544.377670	343.614290	-30.031091	513.530752	219.908562	191.814880	164.512348	247.793671	-68.603043	240.143404	-74.839975	192.379719	120.061690	211.032605	-66.069803	230.292975	-131.357826	177.780495	105.125122	419.880569	-85.772757	71.653706	6.456577	242.564337	1475.725614	229.125706	-87.970371	1417.689563	268.229055	322.818544	1251.213237	95.176124	-164.391073	1159.674499	202.067131	277.264214	1140.085347	302.466417	-70.018958	1085.785952	408.296171
2672	26.71000	105.273353	946.277779	158.296617	81.072594	1480.142748	292.772937	101.184547	1563.511836	440.379238	180.759400	948.203835	154.529088	29.787081	944.351693	162.064319	192.009991	545.617974	338.083872	-29.423317	515.321714	221.205649	192.822290	162.483233	244.653894	-68.178584	241.902683	-69.844361	193.437509	117.287049	207.932906	-65.684568	231.881448	-125.859403	179.449296	104.050491	419.269050	-85.160150	74.920191	11.433017	243.148313	1477.524678	230.074634	-87.534478	1419.982211	267.957620	325.606892	1253.196289	99.130213	-165.289141	1163.196571	200.095984	277.315284	1144.001250	306.158757	-71.783483	1087.038217	405.539834
2673	26.72000	105.639580	947.927765	158.493995	81.585733	1481.968807	293.205896	102.068857	1565.294117	440.770097	181.173842	949.908239	154.802081	30.105127	945.947267	162.186050	192.041562	546.858278	332.553455	-28.815543	517.112677	222.502736	193.829701	160.454117	241.514117	-67.754125	243.661962	-64.848747	194.495300	114.512408	204.833207	-65.299334	233.469921	-120.360979	181.118096	102.975861	418.657531	-84.547544	78.186677	16.409457	243.732289	1479.323742	231.023563	-87.098586	1422.274859	267.686185	328.395241	1255.179341	103.084302	-166.187210	1166.718643	198.124837	277.366354	1147.917153	309.851097	-73.548008	1088.290483	402.783496
2674	26.73000	106.005807	949.577752	158.691373	82.098872	1483.794866	293.638856	102.953167	1567.076399	441.160956	181.588284	951.612642	155.075074	30.423173	947.542842	162.307781	192.073132	548.098582	327.023037	-28.207769	518.903640	223.799823	194.837111	158.425002	238.374340	-67.329665	245.421241	-59.853132	195.553090	111.737767	201.733507	-64.914099	235.058394	-114.862555	182.786897	101.901230	418.046012	-83.934937	81.453162	21.385898	244.316265	1481.122806	231.972491	-86.662693	1424.567507	267.414750	331.183590	1257.162393	107.038391	-167.085278	1170.240715	196.153689	277.417423	1151.833056	313.543437	-75.312532	1089.542749	400.027158
2675	26.74000	106.372035	951.227739	158.888751	82.612011	1485.620925	294.071815	103.837478	1568.858681	441.551816	182.002727	953.317046	155.348067	30.741219	949.138416	162.429512	192.104703	549.338886	321.492619	-27.599995	520.694602	225.096910	195.844521	156.395886	235.234563	-66.905206	247.180520	-54.857518	196.610880	108.963126	198.633808	-64.528864	236.646867	-109.364131	184.455697	100.826600	417.434493	-83.322330	84.719648	26.362338	244.900241	1482.921870	232.921419	-86.226801	1426.860156	267.143315	333.971938	1259.145446	110.992480	-167.983347	1173.762788	194.182542	277.468493	1155.748959	317.235777	-77.077057	1090.795015	397.270820
2676	26.75000	106.738262	952.877725	159.086129	83.125149	1487.446984	294.504775	104.721788	1570.640963	441.942675	182.417169	955.021450	155.621060	31.059265	950.733991	162.551243	192.136273	550.579190	315.962201	-26.992221	522.485565	226.393997	196.851932	154.366771	232.094786	-66.480747	248.939799	-49.861904	197.668671	106.188485	195.534109	-64.143629	238.235340	-103.865707	186.124498	99.751969	416.822974	-82.709724	87.986133	31.338778	245.484217	1484.720934	233.870347	-85.790908	1429.152804	266.871880	336.760287	1261.128498	114.946568	-168.881415	1177.284860	192.211395	277.519563	1159.664862	320.928117	-78.841582	1092.047281	394.514482
2677	26.76000	107.104489	954.527712	159.283508	83.638288	1489.273043	294.937735	105.606099	1572.423244	442.333535	182.831611	956.725853	155.894053	31.377312	952.329566	162.672974	192.167844	551.819494	310.431783	-26.384447	524.276527	227.691084	197.859342	152.337655	228.955009	-66.056288	250.699079	-44.866290	198.726461	103.413844	192.434410	-63.758394	239.823813	-98.367283	187.793298	98.677338	416.211456	-82.097117	91.252619	36.315219	246.068193	1486.519998	234.819275	-85.355016	1431.445452	266.600445	339.548636	1263.111550	118.900657	-169.779483	1180.806932	190.240248	277.570633	1163.580765	324.620456	-80.606106	1093.299547	391.758144
